<?xml version="1.0" encoding="UTF-8" standalone="no"?>
<!-- Created with Inkscape (http://www.inkscape.org/) -->

<svg
   width="14.008221mm"
   height="8.0036459mm"
   viewBox="0 0 14.008221 8.0036459"
   version="1.1"
   id="svg1"
   xmlns:inkscape="http://www.inkscape.org/namespaces/inkscape"
   xmlns:sodipodi="http://sodipodi.sourceforge.net/DTD/sodipodi-0.dtd"
   xmlns="http://www.w3.org/2000/svg"
   xmlns:svg="http://www.w3.org/2000/svg">
  <sodipodi:namedview
     id="namedview1"
     pagecolor="#505050"
     bordercolor="#eeeeee"
     borderopacity="1"
     inkscape:showpageshadow="0"
     inkscape:pageopacity="0"
     inkscape:pagecheckerboard="0"
     inkscape:deskcolor="#505050"
     inkscape:document-units="mm" />
  <defs
     id="defs1" />
  <g
     inkscape:label="Layer 1"
     inkscape:groupmode="layer"
     id="layer1"
     transform="translate(-45.772908,-274.6375)">
    <path
       d="m 57.076498,282.17077 c -0.94809,0 -1.771238,-0.70556 -2.006424,-1.5287 l 1.888831,-0.35278 h 0.117593 c 0.235185,0 0.352778,-0.11759 0.352778,-0.35278 0,-0.11759 -0.117593,-0.23518 -0.235185,-0.23518 l -1.183276,-1.53606 c 0.352778,-0.23518 0.712905,-0.35278 1.065683,-0.35278 1.175926,0 2.116667,0.94809 2.116667,2.12402 0,1.29352 -0.940741,2.23426 -2.116667,2.23426 z m -2.124016,-2.23426 c 0,-0.58796 0.235185,-1.17593 0.705555,-1.5287 l 1.065683,1.41111 -1.771238,0.47037 c 0,-0.11759 0,-0.23519 0,-0.35278 z m -0.47037,0.35278 -0.823149,0.23518 0.940741,-3.53512 0.705556,1.05833 c -0.470371,0.47772 -0.823148,1.18328 -0.823148,1.88883 0,0.23519 0,0.35278 0,0.35278 z m -1.175926,0 -0.117593,-0.58796 h 0.117593 v -0.1176 h -0.587963 v 0.1176 h 0.235185 l 0.117592,0.47037 -2.711979,-2.94717 c 0,-0.11759 0.117593,-0.35278 0.117593,-0.47037 h 3.770312 z m -2.711979,-0.35278 c 0,1.29352 -0.940741,2.23426 -2.116667,2.23426 -1.293519,0 -2.234259,-0.94074 -2.234259,-2.23426 0,-1.17593 0.94074,-2.12402 2.234259,-2.12402 0.352778,0 0.705555,0.1176 1.058333,0.35278 -0.235185,0.59531 -0.705555,1.18328 -1.058333,1.53606 -0.235185,0 -0.352778,0.11759 -0.352778,0.23518 0,0.23519 0.117593,0.35278 0.352778,0.35278 0.117593,0 0.235185,-0.11759 0.235185,-0.23519 0.117593,-0.23518 0.352778,-0.47037 0.587963,-0.70555 0.235185,-0.23519 0.47037,-0.58797 0.587963,-0.94074 0.47037,0.47037 0.705556,0.94074 0.705556,1.5287 z m 6.482291,-2.59439 c -0.47037,0 -0.94809,0.1176 -1.418461,0.47037 l -0.94074,-1.29351 0.117592,-0.47037 c 0.587963,0 0.940741,-0.23519 0.940741,-0.47037 0,-0.1176 -0.587963,0 -1.293518,0 -0.117593,0 -1.058334,0 -1.058334,0.11759 0,0.23518 0.587963,0.35278 1.058334,0.35278 l -0.117593,0.35277 h -3.770312 c 0.117592,-0.35277 0.117592,-0.58796 0.235185,-0.70555 0,-0.23519 0.117592,-0.35278 0.117592,-0.35278 l -0.352777,-0.23518 0.117592,-0.1176 h 1.065683 v -0.35278 h -1.183275 l -0.470371,0.47038 0.352778,0.23518 c -0.117593,0.58796 -0.47037,1.6463 -0.705556,2.35185 -0.47037,-0.23518 -0.823148,-0.35278 -1.293518,-0.35278 -1.528704,0 -2.70463,1.18328 -2.70463,2.59439 0,1.5287 1.175926,2.70463 2.70463,2.70463 1.411111,0 2.587037,-1.17593 2.587037,-2.70463 0,-0.70555 -0.352778,-1.5287 -0.940741,-2.00642 0,-0.1176 0,-0.1176 0.117593,-0.23519 l 2.829571,3.06476 c 0,0.23518 0.117593,0.35278 0.235186,0.35278 l 0.235185,0.70555 h -0.235185 v 0.23519 h 0.705555 v -0.23519 h -0.352778 l -0.117592,-0.70555 c 0,-0.1176 0,-0.1176 0.117592,-0.1176 l 0.940741,-0.23518 c 0.235185,1.05833 1.293519,1.88148 2.476794,1.88148 1.528704,0 2.70463,-1.17593 2.70463,-2.70463 0,-1.41111 -1.175926,-2.59439 -2.70463,-2.59439 z"
       fill="#ed1d24"
       id="path3045"
       style="stroke-width:0.734954"
       inkscape:export-filename="path3045.svg"
       inkscape:export-xdpi="96"
       inkscape:export-ydpi="96" />
  </g>
</svg>
